<mxfile host="app.diagrams.net" modified="2024-04-27T07:42:07.576Z" agent="Mozilla/5.0 (Windows NT 10.0; Win64; x64) AppleWebKit/537.36 (KHTML, like Gecko) Chrome/124.0.0.0 Safari/537.36" etag="HmrDf0uCK32fIrghl3-i" version="24.2.5" type="device">
  <diagram name="Страница — 1" id="KhinYH2sL0i6odEB5fwl">
    <mxGraphModel dx="2264" dy="2266" grid="1" gridSize="10" guides="1" tooltips="1" connect="1" arrows="1" fold="1" page="1" pageScale="1" pageWidth="827" pageHeight="1169" math="0" shadow="0">
      <root>
        <mxCell id="0" />
        <mxCell id="1" parent="0" />
        <mxCell id="YJyw7X2XZXAhDAbzFkZ1-4" style="edgeStyle=orthogonalEdgeStyle;rounded=0;orthogonalLoop=1;jettySize=auto;html=1;entryX=0.5;entryY=0;entryDx=0;entryDy=0;fontSize=24;fontStyle=0" parent="1" source="YJyw7X2XZXAhDAbzFkZ1-2" target="YJyw7X2XZXAhDAbzFkZ1-3" edge="1">
          <mxGeometry relative="1" as="geometry" />
        </mxCell>
        <mxCell id="YJyw7X2XZXAhDAbzFkZ1-2" value="Н" style="ellipse;whiteSpace=wrap;html=1;fontSize=24;fontStyle=0" parent="1" vertex="1">
          <mxGeometry x="190" y="110" width="120" height="80" as="geometry" />
        </mxCell>
        <mxCell id="YJyw7X2XZXAhDAbzFkZ1-6" style="edgeStyle=orthogonalEdgeStyle;rounded=0;orthogonalLoop=1;jettySize=auto;html=1;entryX=0.5;entryY=0;entryDx=0;entryDy=0;fontSize=24;fontStyle=0" parent="1" source="YJyw7X2XZXAhDAbzFkZ1-3" target="YJyw7X2XZXAhDAbzFkZ1-5" edge="1">
          <mxGeometry relative="1" as="geometry" />
        </mxCell>
        <mxCell id="YJyw7X2XZXAhDAbzFkZ1-3" value="y1, y2" style="rounded=0;whiteSpace=wrap;html=1;fontSize=24;fontStyle=0" parent="1" vertex="1">
          <mxGeometry x="190" y="240" width="120" height="60" as="geometry" />
        </mxCell>
        <mxCell id="YJyw7X2XZXAhDAbzFkZ1-7" style="edgeStyle=orthogonalEdgeStyle;rounded=0;orthogonalLoop=1;jettySize=auto;html=1;fontSize=24;fontStyle=0" parent="1" source="YJyw7X2XZXAhDAbzFkZ1-5" edge="1">
          <mxGeometry relative="1" as="geometry">
            <mxPoint x="150" y="390" as="targetPoint" />
          </mxGeometry>
        </mxCell>
        <mxCell id="YJyw7X2XZXAhDAbzFkZ1-11" value="0" style="edgeLabel;html=1;align=center;verticalAlign=middle;resizable=0;points=[];fontSize=24;fontStyle=0" parent="YJyw7X2XZXAhDAbzFkZ1-7" vertex="1" connectable="0">
          <mxGeometry x="-0.167" y="-2" relative="1" as="geometry">
            <mxPoint as="offset" />
          </mxGeometry>
        </mxCell>
        <mxCell id="YJyw7X2XZXAhDAbzFkZ1-9" style="edgeStyle=orthogonalEdgeStyle;rounded=0;orthogonalLoop=1;jettySize=auto;html=1;fontSize=24;fontStyle=0" parent="1" source="YJyw7X2XZXAhDAbzFkZ1-5" edge="1">
          <mxGeometry relative="1" as="geometry">
            <mxPoint x="350" y="390" as="targetPoint" />
          </mxGeometry>
        </mxCell>
        <mxCell id="YJyw7X2XZXAhDAbzFkZ1-10" value="1" style="edgeLabel;html=1;align=center;verticalAlign=middle;resizable=0;points=[];fontSize=24;fontStyle=0" parent="YJyw7X2XZXAhDAbzFkZ1-9" vertex="1" connectable="0">
          <mxGeometry x="-0.1141" y="3" relative="1" as="geometry">
            <mxPoint as="offset" />
          </mxGeometry>
        </mxCell>
        <mxCell id="YJyw7X2XZXAhDAbzFkZ1-5" value="x1" style="rhombus;whiteSpace=wrap;html=1;fontSize=24;fontStyle=0" parent="1" vertex="1">
          <mxGeometry x="210" y="350" width="80" height="80" as="geometry" />
        </mxCell>
        <mxCell id="YJyw7X2XZXAhDAbzFkZ1-8" value="1" style="ellipse;whiteSpace=wrap;html=1;aspect=fixed;fontSize=24;fontStyle=0" parent="1" vertex="1">
          <mxGeometry x="70" y="350" width="80" height="80" as="geometry" />
        </mxCell>
        <mxCell id="YJyw7X2XZXAhDAbzFkZ1-14" style="edgeStyle=orthogonalEdgeStyle;rounded=0;orthogonalLoop=1;jettySize=auto;html=1;entryX=0.5;entryY=0;entryDx=0;entryDy=0;fontSize=24;fontStyle=0" parent="1" source="YJyw7X2XZXAhDAbzFkZ1-12" target="YJyw7X2XZXAhDAbzFkZ1-13" edge="1">
          <mxGeometry relative="1" as="geometry" />
        </mxCell>
        <mxCell id="YJyw7X2XZXAhDAbzFkZ1-12" value="y3, y4" style="rounded=0;whiteSpace=wrap;html=1;fontSize=24;fontStyle=0" parent="1" vertex="1">
          <mxGeometry x="350" y="360" width="120" height="60" as="geometry" />
        </mxCell>
        <mxCell id="YJyw7X2XZXAhDAbzFkZ1-15" style="edgeStyle=orthogonalEdgeStyle;rounded=0;orthogonalLoop=1;jettySize=auto;html=1;entryX=0.5;entryY=0;entryDx=0;entryDy=0;fontSize=24;fontStyle=0" parent="1" source="YJyw7X2XZXAhDAbzFkZ1-13" target="YJyw7X2XZXAhDAbzFkZ1-31" edge="1">
          <mxGeometry relative="1" as="geometry">
            <mxPoint x="410" y="670" as="targetPoint" />
          </mxGeometry>
        </mxCell>
        <mxCell id="YJyw7X2XZXAhDAbzFkZ1-20" value="0" style="edgeLabel;html=1;align=center;verticalAlign=middle;resizable=0;points=[];fontSize=24;fontStyle=0" parent="YJyw7X2XZXAhDAbzFkZ1-15" vertex="1" connectable="0">
          <mxGeometry x="-0.5131" y="-4" relative="1" as="geometry">
            <mxPoint as="offset" />
          </mxGeometry>
        </mxCell>
        <mxCell id="YJyw7X2XZXAhDAbzFkZ1-16" style="edgeStyle=orthogonalEdgeStyle;rounded=0;orthogonalLoop=1;jettySize=auto;html=1;fontSize=24;fontStyle=0" parent="1" source="YJyw7X2XZXAhDAbzFkZ1-13" edge="1">
          <mxGeometry relative="1" as="geometry">
            <mxPoint x="540" y="500" as="targetPoint" />
          </mxGeometry>
        </mxCell>
        <mxCell id="YJyw7X2XZXAhDAbzFkZ1-19" value="1" style="edgeLabel;html=1;align=center;verticalAlign=middle;resizable=0;points=[];fontSize=24;fontStyle=0" parent="YJyw7X2XZXAhDAbzFkZ1-16" vertex="1" connectable="0">
          <mxGeometry x="-0.231" y="3" relative="1" as="geometry">
            <mxPoint as="offset" />
          </mxGeometry>
        </mxCell>
        <mxCell id="YJyw7X2XZXAhDAbzFkZ1-13" value="x2" style="rhombus;whiteSpace=wrap;html=1;fontSize=24;fontStyle=0" parent="1" vertex="1">
          <mxGeometry x="370" y="460" width="80" height="80" as="geometry" />
        </mxCell>
        <mxCell id="YJyw7X2XZXAhDAbzFkZ1-18" style="edgeStyle=orthogonalEdgeStyle;rounded=0;orthogonalLoop=1;jettySize=auto;html=1;fontSize=24;fontStyle=0" parent="1" source="YJyw7X2XZXAhDAbzFkZ1-17" edge="1">
          <mxGeometry relative="1" as="geometry">
            <mxPoint x="700" y="500" as="targetPoint" />
          </mxGeometry>
        </mxCell>
        <mxCell id="YJyw7X2XZXAhDAbzFkZ1-21" value="0" style="edgeLabel;html=1;align=center;verticalAlign=middle;resizable=0;points=[];fontSize=24;fontStyle=0" parent="YJyw7X2XZXAhDAbzFkZ1-18" vertex="1" connectable="0">
          <mxGeometry x="-0.2597" y="3" relative="1" as="geometry">
            <mxPoint as="offset" />
          </mxGeometry>
        </mxCell>
        <mxCell id="YJyw7X2XZXAhDAbzFkZ1-25" style="edgeStyle=orthogonalEdgeStyle;rounded=0;orthogonalLoop=1;jettySize=auto;html=1;fontSize=24;fontStyle=0" parent="1" source="YJyw7X2XZXAhDAbzFkZ1-17" edge="1">
          <mxGeometry relative="1" as="geometry">
            <mxPoint x="580" y="600" as="targetPoint" />
          </mxGeometry>
        </mxCell>
        <mxCell id="YJyw7X2XZXAhDAbzFkZ1-26" value="1" style="edgeLabel;html=1;align=center;verticalAlign=middle;resizable=0;points=[];fontSize=24;fontStyle=0" parent="YJyw7X2XZXAhDAbzFkZ1-25" vertex="1" connectable="0">
          <mxGeometry x="-0.3852" y="1" relative="1" as="geometry">
            <mxPoint as="offset" />
          </mxGeometry>
        </mxCell>
        <mxCell id="YJyw7X2XZXAhDAbzFkZ1-17" value="x3" style="rhombus;whiteSpace=wrap;html=1;fontSize=24;fontStyle=0" parent="1" vertex="1">
          <mxGeometry x="540" y="460" width="80" height="80" as="geometry" />
        </mxCell>
        <mxCell id="YJyw7X2XZXAhDAbzFkZ1-28" style="edgeStyle=orthogonalEdgeStyle;rounded=0;orthogonalLoop=1;jettySize=auto;html=1;entryX=0;entryY=0.5;entryDx=0;entryDy=0;fontSize=24;fontStyle=0" parent="1" source="YJyw7X2XZXAhDAbzFkZ1-22" target="YJyw7X2XZXAhDAbzFkZ1-24" edge="1">
          <mxGeometry relative="1" as="geometry" />
        </mxCell>
        <mxCell id="YJyw7X2XZXAhDAbzFkZ1-22" value="y8" style="rounded=0;whiteSpace=wrap;html=1;fontSize=24;fontStyle=0" parent="1" vertex="1">
          <mxGeometry x="700" y="470" width="120" height="60" as="geometry" />
        </mxCell>
        <mxCell id="YJyw7X2XZXAhDAbzFkZ1-24" value="2" style="ellipse;whiteSpace=wrap;html=1;aspect=fixed;fontSize=24;fontStyle=0" parent="1" vertex="1">
          <mxGeometry x="880" y="460" width="80" height="80" as="geometry" />
        </mxCell>
        <mxCell id="YJyw7X2XZXAhDAbzFkZ1-29" style="edgeStyle=orthogonalEdgeStyle;rounded=0;orthogonalLoop=1;jettySize=auto;html=1;fontSize=24;fontStyle=0" parent="1" source="YJyw7X2XZXAhDAbzFkZ1-27" edge="1">
          <mxGeometry relative="1" as="geometry">
            <mxPoint x="720" y="630" as="targetPoint" />
          </mxGeometry>
        </mxCell>
        <mxCell id="YJyw7X2XZXAhDAbzFkZ1-27" value="y5, y6, y7" style="rounded=0;whiteSpace=wrap;html=1;fontSize=24;fontStyle=0" parent="1" vertex="1">
          <mxGeometry x="520" y="600" width="120" height="60" as="geometry" />
        </mxCell>
        <mxCell id="YJyw7X2XZXAhDAbzFkZ1-30" value="3" style="ellipse;whiteSpace=wrap;html=1;aspect=fixed;fontSize=24;fontStyle=0" parent="1" vertex="1">
          <mxGeometry x="720" y="590" width="80" height="80" as="geometry" />
        </mxCell>
        <mxCell id="YJyw7X2XZXAhDAbzFkZ1-34" style="edgeStyle=orthogonalEdgeStyle;rounded=0;orthogonalLoop=1;jettySize=auto;html=1;entryX=0;entryY=0.5;entryDx=0;entryDy=0;fontSize=24;fontStyle=0" parent="1" source="YJyw7X2XZXAhDAbzFkZ1-31" target="YJyw7X2XZXAhDAbzFkZ1-33" edge="1">
          <mxGeometry relative="1" as="geometry" />
        </mxCell>
        <mxCell id="YJyw7X2XZXAhDAbzFkZ1-36" value="1" style="edgeLabel;html=1;align=center;verticalAlign=middle;resizable=0;points=[];fontSize=24;fontStyle=0" parent="YJyw7X2XZXAhDAbzFkZ1-34" vertex="1" connectable="0">
          <mxGeometry x="-0.1314" y="3" relative="1" as="geometry">
            <mxPoint as="offset" />
          </mxGeometry>
        </mxCell>
        <mxCell id="YJyw7X2XZXAhDAbzFkZ1-37" style="edgeStyle=orthogonalEdgeStyle;rounded=0;orthogonalLoop=1;jettySize=auto;html=1;fontSize=24;fontStyle=0" parent="1" source="YJyw7X2XZXAhDAbzFkZ1-31" edge="1">
          <mxGeometry relative="1" as="geometry">
            <mxPoint x="410" y="820" as="targetPoint" />
          </mxGeometry>
        </mxCell>
        <mxCell id="YJyw7X2XZXAhDAbzFkZ1-38" value="0" style="edgeLabel;html=1;align=center;verticalAlign=middle;resizable=0;points=[];fontSize=24;fontStyle=0" parent="YJyw7X2XZXAhDAbzFkZ1-37" vertex="1" connectable="0">
          <mxGeometry x="-0.4343" y="-3" relative="1" as="geometry">
            <mxPoint as="offset" />
          </mxGeometry>
        </mxCell>
        <mxCell id="YJyw7X2XZXAhDAbzFkZ1-31" value="x4" style="rhombus;whiteSpace=wrap;html=1;fontSize=24;fontStyle=0" parent="1" vertex="1">
          <mxGeometry x="370" y="680" width="80" height="80" as="geometry" />
        </mxCell>
        <mxCell id="YJyw7X2XZXAhDAbzFkZ1-35" style="edgeStyle=orthogonalEdgeStyle;rounded=0;orthogonalLoop=1;jettySize=auto;html=1;fontSize=24;fontStyle=0" parent="1" source="YJyw7X2XZXAhDAbzFkZ1-33" edge="1">
          <mxGeometry relative="1" as="geometry">
            <mxPoint x="680" y="630" as="targetPoint" />
          </mxGeometry>
        </mxCell>
        <mxCell id="YJyw7X2XZXAhDAbzFkZ1-33" value="y9" style="rounded=0;whiteSpace=wrap;html=1;fontSize=24;fontStyle=0" parent="1" vertex="1">
          <mxGeometry x="520" y="690" width="120" height="60" as="geometry" />
        </mxCell>
        <mxCell id="YJyw7X2XZXAhDAbzFkZ1-42" style="edgeStyle=orthogonalEdgeStyle;rounded=0;orthogonalLoop=1;jettySize=auto;html=1;entryX=0;entryY=0.5;entryDx=0;entryDy=0;fontSize=24;fontStyle=0" parent="1" source="YJyw7X2XZXAhDAbzFkZ1-40" target="YJyw7X2XZXAhDAbzFkZ1-41" edge="1">
          <mxGeometry relative="1" as="geometry" />
        </mxCell>
        <mxCell id="YJyw7X2XZXAhDAbzFkZ1-45" value="1" style="edgeLabel;html=1;align=center;verticalAlign=middle;resizable=0;points=[];fontSize=24;fontStyle=0" parent="YJyw7X2XZXAhDAbzFkZ1-42" vertex="1" connectable="0">
          <mxGeometry x="-0.1314" y="4" relative="1" as="geometry">
            <mxPoint as="offset" />
          </mxGeometry>
        </mxCell>
        <mxCell id="YJyw7X2XZXAhDAbzFkZ1-46" style="edgeStyle=orthogonalEdgeStyle;rounded=0;orthogonalLoop=1;jettySize=auto;html=1;fontSize=24;fontStyle=0" parent="1" source="YJyw7X2XZXAhDAbzFkZ1-40" edge="1">
          <mxGeometry relative="1" as="geometry">
            <mxPoint x="410" y="960" as="targetPoint" />
          </mxGeometry>
        </mxCell>
        <mxCell id="YJyw7X2XZXAhDAbzFkZ1-48" value="0" style="edgeLabel;html=1;align=center;verticalAlign=middle;resizable=0;points=[];fontSize=24;fontStyle=0" parent="YJyw7X2XZXAhDAbzFkZ1-46" vertex="1" connectable="0">
          <mxGeometry x="-0.2529" y="-4" relative="1" as="geometry">
            <mxPoint as="offset" />
          </mxGeometry>
        </mxCell>
        <mxCell id="YJyw7X2XZXAhDAbzFkZ1-40" value="x5" style="rhombus;whiteSpace=wrap;html=1;fontSize=24;fontStyle=0" parent="1" vertex="1">
          <mxGeometry x="370" y="820" width="80" height="80" as="geometry" />
        </mxCell>
        <mxCell id="YJyw7X2XZXAhDAbzFkZ1-44" style="edgeStyle=orthogonalEdgeStyle;rounded=0;orthogonalLoop=1;jettySize=auto;html=1;fontSize=24;fontStyle=0" parent="1" source="YJyw7X2XZXAhDAbzFkZ1-41" edge="1">
          <mxGeometry relative="1" as="geometry">
            <mxPoint x="680" y="720" as="targetPoint" />
          </mxGeometry>
        </mxCell>
        <mxCell id="YJyw7X2XZXAhDAbzFkZ1-41" value="y10" style="rounded=0;whiteSpace=wrap;html=1;fontSize=24;fontStyle=0" parent="1" vertex="1">
          <mxGeometry x="520" y="830" width="120" height="60" as="geometry" />
        </mxCell>
        <mxCell id="YJyw7X2XZXAhDAbzFkZ1-49" style="edgeStyle=orthogonalEdgeStyle;rounded=0;orthogonalLoop=1;jettySize=auto;html=1;fontSize=24;fontStyle=0" parent="1" source="YJyw7X2XZXAhDAbzFkZ1-47" edge="1">
          <mxGeometry relative="1" as="geometry">
            <mxPoint x="680" y="860" as="targetPoint" />
          </mxGeometry>
        </mxCell>
        <mxCell id="YJyw7X2XZXAhDAbzFkZ1-50" value="1" style="edgeLabel;html=1;align=center;verticalAlign=middle;resizable=0;points=[];fontSize=24;fontStyle=0" parent="YJyw7X2XZXAhDAbzFkZ1-49" vertex="1" connectable="0">
          <mxGeometry x="-0.647" y="4" relative="1" as="geometry">
            <mxPoint as="offset" />
          </mxGeometry>
        </mxCell>
        <mxCell id="YJyw7X2XZXAhDAbzFkZ1-52" style="edgeStyle=orthogonalEdgeStyle;rounded=0;orthogonalLoop=1;jettySize=auto;html=1;entryX=0.5;entryY=0;entryDx=0;entryDy=0;fontSize=24;fontStyle=0" parent="1" source="YJyw7X2XZXAhDAbzFkZ1-47" target="YJyw7X2XZXAhDAbzFkZ1-51" edge="1">
          <mxGeometry relative="1" as="geometry" />
        </mxCell>
        <mxCell id="jt6Rj8C8MqJk3kny9WXJ-1" value="0" style="edgeLabel;html=1;align=center;verticalAlign=middle;resizable=0;points=[];fontSize=24;" vertex="1" connectable="0" parent="YJyw7X2XZXAhDAbzFkZ1-52">
          <mxGeometry x="-0.5857" y="3" relative="1" as="geometry">
            <mxPoint as="offset" />
          </mxGeometry>
        </mxCell>
        <mxCell id="YJyw7X2XZXAhDAbzFkZ1-47" value="x6" style="rhombus;whiteSpace=wrap;html=1;fontSize=24;fontStyle=0" parent="1" vertex="1">
          <mxGeometry x="370" y="960" width="80" height="80" as="geometry" />
        </mxCell>
        <mxCell id="YJyw7X2XZXAhDAbzFkZ1-53" style="edgeStyle=orthogonalEdgeStyle;rounded=0;orthogonalLoop=1;jettySize=auto;html=1;entryX=0;entryY=0.5;entryDx=0;entryDy=0;fontSize=24;fontStyle=0" parent="1" source="YJyw7X2XZXAhDAbzFkZ1-51" target="YJyw7X2XZXAhDAbzFkZ1-54" edge="1">
          <mxGeometry relative="1" as="geometry">
            <mxPoint x="510" y="1120" as="targetPoint" />
          </mxGeometry>
        </mxCell>
        <mxCell id="YJyw7X2XZXAhDAbzFkZ1-55" value="1" style="edgeLabel;html=1;align=center;verticalAlign=middle;resizable=0;points=[];fontSize=24;fontStyle=0" parent="YJyw7X2XZXAhDAbzFkZ1-53" vertex="1" connectable="0">
          <mxGeometry x="-0.2171" y="3" relative="1" as="geometry">
            <mxPoint as="offset" />
          </mxGeometry>
        </mxCell>
        <mxCell id="YJyw7X2XZXAhDAbzFkZ1-124" style="edgeStyle=orthogonalEdgeStyle;rounded=0;orthogonalLoop=1;jettySize=auto;html=1;fontSize=24;fontStyle=0" parent="1" source="YJyw7X2XZXAhDAbzFkZ1-51" edge="1">
          <mxGeometry relative="1" as="geometry">
            <mxPoint x="290" y="1120" as="targetPoint" />
          </mxGeometry>
        </mxCell>
        <mxCell id="YJyw7X2XZXAhDAbzFkZ1-125" value="0" style="edgeLabel;html=1;align=center;verticalAlign=middle;resizable=0;points=[];fontSize=24;fontStyle=0" parent="YJyw7X2XZXAhDAbzFkZ1-124" vertex="1" connectable="0">
          <mxGeometry x="-0.2199" y="-1" relative="1" as="geometry">
            <mxPoint as="offset" />
          </mxGeometry>
        </mxCell>
        <mxCell id="YJyw7X2XZXAhDAbzFkZ1-51" value="x7" style="rhombus;whiteSpace=wrap;html=1;fontSize=24;fontStyle=0" parent="1" vertex="1">
          <mxGeometry x="370" y="1080" width="80" height="80" as="geometry" />
        </mxCell>
        <mxCell id="YJyw7X2XZXAhDAbzFkZ1-59" style="edgeStyle=orthogonalEdgeStyle;rounded=0;orthogonalLoop=1;jettySize=auto;html=1;entryX=0;entryY=0.5;entryDx=0;entryDy=0;fontSize=24;fontStyle=0" parent="1" source="YJyw7X2XZXAhDAbzFkZ1-54" target="YJyw7X2XZXAhDAbzFkZ1-58" edge="1">
          <mxGeometry relative="1" as="geometry" />
        </mxCell>
        <mxCell id="YJyw7X2XZXAhDAbzFkZ1-54" value="y11" style="rounded=0;whiteSpace=wrap;html=1;fontSize=24;fontStyle=0" parent="1" vertex="1">
          <mxGeometry x="520" y="1090" width="120" height="60" as="geometry" />
        </mxCell>
        <mxCell id="YJyw7X2XZXAhDAbzFkZ1-60" style="edgeStyle=orthogonalEdgeStyle;rounded=0;orthogonalLoop=1;jettySize=auto;html=1;fontSize=24;fontStyle=0" parent="1" source="YJyw7X2XZXAhDAbzFkZ1-58" edge="1">
          <mxGeometry relative="1" as="geometry">
            <mxPoint x="890" y="1120" as="targetPoint" />
          </mxGeometry>
        </mxCell>
        <mxCell id="YJyw7X2XZXAhDAbzFkZ1-61" value="0" style="edgeLabel;html=1;align=center;verticalAlign=middle;resizable=0;points=[];fontSize=24;fontStyle=0" parent="YJyw7X2XZXAhDAbzFkZ1-60" vertex="1" connectable="0">
          <mxGeometry x="-0.1284" y="3" relative="1" as="geometry">
            <mxPoint as="offset" />
          </mxGeometry>
        </mxCell>
        <mxCell id="YJyw7X2XZXAhDAbzFkZ1-62" style="edgeStyle=orthogonalEdgeStyle;rounded=0;orthogonalLoop=1;jettySize=auto;html=1;fontSize=24;fontStyle=0" parent="1" source="YJyw7X2XZXAhDAbzFkZ1-58" edge="1">
          <mxGeometry relative="1" as="geometry">
            <mxPoint x="750" y="1200" as="targetPoint" />
          </mxGeometry>
        </mxCell>
        <mxCell id="YJyw7X2XZXAhDAbzFkZ1-64" value="1" style="edgeLabel;html=1;align=center;verticalAlign=middle;resizable=0;points=[];fontSize=24;fontStyle=0" parent="YJyw7X2XZXAhDAbzFkZ1-62" vertex="1" connectable="0">
          <mxGeometry x="-0.4865" y="2" relative="1" as="geometry">
            <mxPoint as="offset" />
          </mxGeometry>
        </mxCell>
        <mxCell id="YJyw7X2XZXAhDAbzFkZ1-58" value="x8" style="rhombus;whiteSpace=wrap;html=1;fontSize=24;fontStyle=0" parent="1" vertex="1">
          <mxGeometry x="710" y="1080" width="80" height="80" as="geometry" />
        </mxCell>
        <mxCell id="YJyw7X2XZXAhDAbzFkZ1-86" style="edgeStyle=orthogonalEdgeStyle;rounded=0;orthogonalLoop=1;jettySize=auto;html=1;entryX=0.5;entryY=0;entryDx=0;entryDy=0;fontSize=24;fontStyle=0" parent="1" source="YJyw7X2XZXAhDAbzFkZ1-63" target="YJyw7X2XZXAhDAbzFkZ1-69" edge="1">
          <mxGeometry relative="1" as="geometry" />
        </mxCell>
        <mxCell id="YJyw7X2XZXAhDAbzFkZ1-63" value="y12" style="rounded=0;whiteSpace=wrap;html=1;fontSize=24;fontStyle=0" parent="1" vertex="1">
          <mxGeometry x="690" y="1200" width="120" height="60" as="geometry" />
        </mxCell>
        <mxCell id="YJyw7X2XZXAhDAbzFkZ1-68" style="edgeStyle=orthogonalEdgeStyle;rounded=0;orthogonalLoop=1;jettySize=auto;html=1;entryX=0.5;entryY=0;entryDx=0;entryDy=0;fontSize=24;fontStyle=0" parent="1" source="YJyw7X2XZXAhDAbzFkZ1-66" target="YJyw7X2XZXAhDAbzFkZ1-67" edge="1">
          <mxGeometry relative="1" as="geometry" />
        </mxCell>
        <mxCell id="YJyw7X2XZXAhDAbzFkZ1-75" value="1" style="edgeLabel;html=1;align=center;verticalAlign=middle;resizable=0;points=[];fontSize=24;fontStyle=0" parent="YJyw7X2XZXAhDAbzFkZ1-68" vertex="1" connectable="0">
          <mxGeometry x="-0.3417" y="2" relative="1" as="geometry">
            <mxPoint as="offset" />
          </mxGeometry>
        </mxCell>
        <mxCell id="YJyw7X2XZXAhDAbzFkZ1-74" style="edgeStyle=orthogonalEdgeStyle;rounded=0;orthogonalLoop=1;jettySize=auto;html=1;fontSize=24;fontStyle=0" parent="1" source="YJyw7X2XZXAhDAbzFkZ1-66" edge="1">
          <mxGeometry relative="1" as="geometry">
            <mxPoint x="1080" y="1120" as="targetPoint" />
          </mxGeometry>
        </mxCell>
        <mxCell id="YJyw7X2XZXAhDAbzFkZ1-76" value="0" style="edgeLabel;html=1;align=center;verticalAlign=middle;resizable=0;points=[];fontSize=24;fontStyle=0" parent="YJyw7X2XZXAhDAbzFkZ1-74" vertex="1" connectable="0">
          <mxGeometry x="-0.2906" y="3" relative="1" as="geometry">
            <mxPoint as="offset" />
          </mxGeometry>
        </mxCell>
        <mxCell id="YJyw7X2XZXAhDAbzFkZ1-66" value="x9" style="rhombus;whiteSpace=wrap;html=1;fontSize=24;fontStyle=0" parent="1" vertex="1">
          <mxGeometry x="890" y="1080" width="80" height="80" as="geometry" />
        </mxCell>
        <mxCell id="YJyw7X2XZXAhDAbzFkZ1-71" style="edgeStyle=orthogonalEdgeStyle;rounded=0;orthogonalLoop=1;jettySize=auto;html=1;entryX=0.5;entryY=0;entryDx=0;entryDy=0;fontSize=24;fontStyle=0" parent="1" source="YJyw7X2XZXAhDAbzFkZ1-67" target="YJyw7X2XZXAhDAbzFkZ1-69" edge="1">
          <mxGeometry relative="1" as="geometry" />
        </mxCell>
        <mxCell id="YJyw7X2XZXAhDAbzFkZ1-67" value="y13" style="rounded=0;whiteSpace=wrap;html=1;fontSize=24;fontStyle=0" parent="1" vertex="1">
          <mxGeometry x="870" y="1200" width="120" height="60" as="geometry" />
        </mxCell>
        <mxCell id="YJyw7X2XZXAhDAbzFkZ1-69" value="4" style="ellipse;whiteSpace=wrap;html=1;aspect=fixed;fontSize=24;fontStyle=0" parent="1" vertex="1">
          <mxGeometry x="800" y="1320" width="80" height="80" as="geometry" />
        </mxCell>
        <mxCell id="YJyw7X2XZXAhDAbzFkZ1-79" style="edgeStyle=orthogonalEdgeStyle;rounded=0;orthogonalLoop=1;jettySize=auto;html=1;entryX=0.5;entryY=0;entryDx=0;entryDy=0;fontSize=24;fontStyle=0" parent="1" source="YJyw7X2XZXAhDAbzFkZ1-77" target="YJyw7X2XZXAhDAbzFkZ1-78" edge="1">
          <mxGeometry relative="1" as="geometry" />
        </mxCell>
        <mxCell id="YJyw7X2XZXAhDAbzFkZ1-80" value="1" style="edgeLabel;html=1;align=center;verticalAlign=middle;resizable=0;points=[];fontSize=24;fontStyle=0" parent="YJyw7X2XZXAhDAbzFkZ1-79" vertex="1" connectable="0">
          <mxGeometry x="-0.3833" y="3" relative="1" as="geometry">
            <mxPoint as="offset" />
          </mxGeometry>
        </mxCell>
        <mxCell id="YJyw7X2XZXAhDAbzFkZ1-81" style="edgeStyle=orthogonalEdgeStyle;rounded=0;orthogonalLoop=1;jettySize=auto;html=1;fontSize=24;fontStyle=0" parent="1" source="YJyw7X2XZXAhDAbzFkZ1-77" edge="1">
          <mxGeometry relative="1" as="geometry">
            <mxPoint x="1230" y="1120" as="targetPoint" />
          </mxGeometry>
        </mxCell>
        <mxCell id="YJyw7X2XZXAhDAbzFkZ1-83" value="0" style="edgeLabel;html=1;align=center;verticalAlign=middle;resizable=0;points=[];fontSize=24;fontStyle=0" parent="YJyw7X2XZXAhDAbzFkZ1-81" vertex="1" connectable="0">
          <mxGeometry x="-0.1584" y="1" relative="1" as="geometry">
            <mxPoint as="offset" />
          </mxGeometry>
        </mxCell>
        <mxCell id="YJyw7X2XZXAhDAbzFkZ1-77" value="x10" style="rhombus;whiteSpace=wrap;html=1;fontSize=24;fontStyle=0" parent="1" vertex="1">
          <mxGeometry x="1080" y="1080" width="80" height="80" as="geometry" />
        </mxCell>
        <mxCell id="YJyw7X2XZXAhDAbzFkZ1-88" style="edgeStyle=orthogonalEdgeStyle;rounded=0;orthogonalLoop=1;jettySize=auto;html=1;entryX=0.5;entryY=0;entryDx=0;entryDy=0;fontSize=24;fontStyle=0" parent="1" source="YJyw7X2XZXAhDAbzFkZ1-78" target="YJyw7X2XZXAhDAbzFkZ1-87" edge="1">
          <mxGeometry relative="1" as="geometry" />
        </mxCell>
        <mxCell id="YJyw7X2XZXAhDAbzFkZ1-78" value="y14" style="rounded=0;whiteSpace=wrap;html=1;fontSize=24;fontStyle=0" parent="1" vertex="1">
          <mxGeometry x="1060" y="1200" width="120" height="60" as="geometry" />
        </mxCell>
        <mxCell id="YJyw7X2XZXAhDAbzFkZ1-84" style="edgeStyle=orthogonalEdgeStyle;rounded=0;orthogonalLoop=1;jettySize=auto;html=1;fontSize=24;fontStyle=0" parent="1" source="YJyw7X2XZXAhDAbzFkZ1-82" edge="1">
          <mxGeometry relative="1" as="geometry">
            <mxPoint x="1270" y="1199.9999999999998" as="targetPoint" />
          </mxGeometry>
        </mxCell>
        <mxCell id="YJyw7X2XZXAhDAbzFkZ1-91" value="1" style="edgeLabel;html=1;align=center;verticalAlign=middle;resizable=0;points=[];fontSize=24;fontStyle=0" parent="YJyw7X2XZXAhDAbzFkZ1-84" vertex="1" connectable="0">
          <mxGeometry x="-0.4776" y="4" relative="1" as="geometry">
            <mxPoint as="offset" />
          </mxGeometry>
        </mxCell>
        <mxCell id="YJyw7X2XZXAhDAbzFkZ1-90" style="edgeStyle=orthogonalEdgeStyle;rounded=0;orthogonalLoop=1;jettySize=auto;html=1;fontSize=24;fontStyle=0" parent="1" source="YJyw7X2XZXAhDAbzFkZ1-82" edge="1">
          <mxGeometry relative="1" as="geometry">
            <mxPoint x="1400" y="1120" as="targetPoint" />
          </mxGeometry>
        </mxCell>
        <mxCell id="YJyw7X2XZXAhDAbzFkZ1-92" value="0" style="edgeLabel;html=1;align=center;verticalAlign=middle;resizable=0;points=[];fontSize=24;fontStyle=0" parent="YJyw7X2XZXAhDAbzFkZ1-90" vertex="1" connectable="0">
          <mxGeometry x="-0.2567" y="4" relative="1" as="geometry">
            <mxPoint as="offset" />
          </mxGeometry>
        </mxCell>
        <mxCell id="YJyw7X2XZXAhDAbzFkZ1-82" value="x11" style="rhombus;whiteSpace=wrap;html=1;fontSize=24;fontStyle=0" parent="1" vertex="1">
          <mxGeometry x="1230" y="1080" width="80" height="80" as="geometry" />
        </mxCell>
        <mxCell id="YJyw7X2XZXAhDAbzFkZ1-89" style="edgeStyle=orthogonalEdgeStyle;rounded=0;orthogonalLoop=1;jettySize=auto;html=1;fontSize=24;fontStyle=0" parent="1" source="YJyw7X2XZXAhDAbzFkZ1-85" edge="1">
          <mxGeometry relative="1" as="geometry">
            <mxPoint x="1200" y="1319.9999999999998" as="targetPoint" />
            <Array as="points">
              <mxPoint x="1270" y="1290" />
              <mxPoint x="1201" y="1290" />
              <mxPoint x="1201" y="1320" />
            </Array>
          </mxGeometry>
        </mxCell>
        <mxCell id="YJyw7X2XZXAhDAbzFkZ1-85" value="y15" style="rounded=0;whiteSpace=wrap;html=1;fontSize=24;fontStyle=0" parent="1" vertex="1">
          <mxGeometry x="1210" y="1200" width="120" height="60" as="geometry" />
        </mxCell>
        <mxCell id="YJyw7X2XZXAhDAbzFkZ1-87" value="5" style="ellipse;whiteSpace=wrap;html=1;aspect=fixed;fontSize=24;fontStyle=0" parent="1" vertex="1">
          <mxGeometry x="1160" y="1320" width="80" height="80" as="geometry" />
        </mxCell>
        <mxCell id="YJyw7X2XZXAhDAbzFkZ1-93" value="6" style="ellipse;whiteSpace=wrap;html=1;aspect=fixed;fontSize=24;fontStyle=0" parent="1" vertex="1">
          <mxGeometry x="1400" y="1080" width="80" height="80" as="geometry" />
        </mxCell>
        <mxCell id="YJyw7X2XZXAhDAbzFkZ1-96" style="edgeStyle=orthogonalEdgeStyle;rounded=0;orthogonalLoop=1;jettySize=auto;html=1;entryX=0.5;entryY=0;entryDx=0;entryDy=0;fontSize=24;fontStyle=0" parent="1" source="YJyw7X2XZXAhDAbzFkZ1-94" target="YJyw7X2XZXAhDAbzFkZ1-95" edge="1">
          <mxGeometry relative="1" as="geometry" />
        </mxCell>
        <mxCell id="YJyw7X2XZXAhDAbzFkZ1-94" value="6" style="ellipse;whiteSpace=wrap;html=1;aspect=fixed;fontSize=24;fontStyle=0" parent="1" vertex="1">
          <mxGeometry x="540" y="1190" width="80" height="80" as="geometry" />
        </mxCell>
        <mxCell id="YJyw7X2XZXAhDAbzFkZ1-98" style="edgeStyle=orthogonalEdgeStyle;rounded=0;orthogonalLoop=1;jettySize=auto;html=1;entryX=0.5;entryY=0;entryDx=0;entryDy=0;fontSize=24;fontStyle=0" parent="1" source="YJyw7X2XZXAhDAbzFkZ1-95" target="YJyw7X2XZXAhDAbzFkZ1-97" edge="1">
          <mxGeometry relative="1" as="geometry" />
        </mxCell>
        <mxCell id="YJyw7X2XZXAhDAbzFkZ1-95" value="y16" style="rounded=0;whiteSpace=wrap;html=1;fontSize=24;fontStyle=0" parent="1" vertex="1">
          <mxGeometry x="520" y="1310" width="120" height="60" as="geometry" />
        </mxCell>
        <mxCell id="YJyw7X2XZXAhDAbzFkZ1-99" style="edgeStyle=orthogonalEdgeStyle;rounded=0;orthogonalLoop=1;jettySize=auto;html=1;fontSize=24;fontStyle=0" parent="1" source="YJyw7X2XZXAhDAbzFkZ1-97" edge="1">
          <mxGeometry relative="1" as="geometry">
            <mxPoint x="670" y="1450" as="targetPoint" />
          </mxGeometry>
        </mxCell>
        <mxCell id="YJyw7X2XZXAhDAbzFkZ1-101" value="0" style="edgeLabel;html=1;align=center;verticalAlign=middle;resizable=0;points=[];fontSize=24;fontStyle=0" parent="YJyw7X2XZXAhDAbzFkZ1-99" vertex="1" connectable="0">
          <mxGeometry x="-0.3347" y="3" relative="1" as="geometry">
            <mxPoint as="offset" />
          </mxGeometry>
        </mxCell>
        <mxCell id="YJyw7X2XZXAhDAbzFkZ1-104" style="edgeStyle=orthogonalEdgeStyle;rounded=0;orthogonalLoop=1;jettySize=auto;html=1;fontSize=24;fontStyle=0" parent="1" source="YJyw7X2XZXAhDAbzFkZ1-97" edge="1">
          <mxGeometry relative="1" as="geometry">
            <mxPoint x="580" y="1540" as="targetPoint" />
          </mxGeometry>
        </mxCell>
        <mxCell id="YJyw7X2XZXAhDAbzFkZ1-105" value="1" style="edgeLabel;html=1;align=center;verticalAlign=middle;resizable=0;points=[];fontSize=24;fontStyle=0" parent="YJyw7X2XZXAhDAbzFkZ1-104" vertex="1" connectable="0">
          <mxGeometry x="-0.4852" y="4" relative="1" as="geometry">
            <mxPoint as="offset" />
          </mxGeometry>
        </mxCell>
        <mxCell id="YJyw7X2XZXAhDAbzFkZ1-97" value="x3" style="rhombus;whiteSpace=wrap;html=1;fontSize=24;fontStyle=0" parent="1" vertex="1">
          <mxGeometry x="540" y="1410" width="80" height="80" as="geometry" />
        </mxCell>
        <mxCell id="YJyw7X2XZXAhDAbzFkZ1-103" style="edgeStyle=orthogonalEdgeStyle;rounded=0;orthogonalLoop=1;jettySize=auto;html=1;fontSize=24;fontStyle=0" parent="1" source="YJyw7X2XZXAhDAbzFkZ1-100" edge="1">
          <mxGeometry relative="1" as="geometry">
            <mxPoint x="840" y="1300" as="targetPoint" />
            <Array as="points">
              <mxPoint x="730" y="1300" />
            </Array>
          </mxGeometry>
        </mxCell>
        <mxCell id="YJyw7X2XZXAhDAbzFkZ1-100" value="y18" style="rounded=0;whiteSpace=wrap;html=1;fontSize=24;fontStyle=0" parent="1" vertex="1">
          <mxGeometry x="670" y="1420" width="120" height="60" as="geometry" />
        </mxCell>
        <mxCell id="YJyw7X2XZXAhDAbzFkZ1-108" style="edgeStyle=orthogonalEdgeStyle;rounded=0;orthogonalLoop=1;jettySize=auto;html=1;entryX=0.5;entryY=0;entryDx=0;entryDy=0;fontSize=24;fontStyle=0" parent="1" source="YJyw7X2XZXAhDAbzFkZ1-106" target="YJyw7X2XZXAhDAbzFkZ1-107" edge="1">
          <mxGeometry relative="1" as="geometry" />
        </mxCell>
        <mxCell id="YJyw7X2XZXAhDAbzFkZ1-106" value="y17" style="rounded=0;whiteSpace=wrap;html=1;fontSize=24;fontStyle=0" parent="1" vertex="1">
          <mxGeometry x="520" y="1540" width="120" height="60" as="geometry" />
        </mxCell>
        <mxCell id="YJyw7X2XZXAhDAbzFkZ1-109" style="edgeStyle=orthogonalEdgeStyle;rounded=0;orthogonalLoop=1;jettySize=auto;html=1;fontSize=24;fontStyle=0" parent="1" source="YJyw7X2XZXAhDAbzFkZ1-107" edge="1">
          <mxGeometry relative="1" as="geometry">
            <mxPoint x="580" y="1790" as="targetPoint" />
          </mxGeometry>
        </mxCell>
        <mxCell id="YJyw7X2XZXAhDAbzFkZ1-110" value="0" style="edgeLabel;html=1;align=center;verticalAlign=middle;resizable=0;points=[];fontSize=24;fontStyle=0" parent="YJyw7X2XZXAhDAbzFkZ1-109" vertex="1" connectable="0">
          <mxGeometry x="-0.3476" y="2" relative="1" as="geometry">
            <mxPoint as="offset" />
          </mxGeometry>
        </mxCell>
        <mxCell id="YJyw7X2XZXAhDAbzFkZ1-112" style="edgeStyle=orthogonalEdgeStyle;rounded=0;orthogonalLoop=1;jettySize=auto;html=1;fontSize=24;fontStyle=0" parent="1" source="YJyw7X2XZXAhDAbzFkZ1-107" edge="1">
          <mxGeometry relative="1" as="geometry">
            <mxPoint x="700" y="1680" as="targetPoint" />
          </mxGeometry>
        </mxCell>
        <mxCell id="YJyw7X2XZXAhDAbzFkZ1-113" value="1" style="edgeLabel;html=1;align=center;verticalAlign=middle;resizable=0;points=[];fontSize=24;fontStyle=0" parent="YJyw7X2XZXAhDAbzFkZ1-112" vertex="1" connectable="0">
          <mxGeometry x="-0.0857" relative="1" as="geometry">
            <mxPoint as="offset" />
          </mxGeometry>
        </mxCell>
        <mxCell id="YJyw7X2XZXAhDAbzFkZ1-107" value="x12" style="rhombus;whiteSpace=wrap;html=1;fontSize=24;fontStyle=0" parent="1" vertex="1">
          <mxGeometry x="540" y="1640" width="80" height="80" as="geometry" />
        </mxCell>
        <mxCell id="YJyw7X2XZXAhDAbzFkZ1-122" style="edgeStyle=orthogonalEdgeStyle;rounded=0;orthogonalLoop=1;jettySize=auto;html=1;fontSize=24;fontStyle=0" parent="1" source="YJyw7X2XZXAhDAbzFkZ1-111" edge="1">
          <mxGeometry relative="1" as="geometry">
            <mxPoint x="580" y="1900" as="targetPoint" />
          </mxGeometry>
        </mxCell>
        <mxCell id="YJyw7X2XZXAhDAbzFkZ1-111" value="y20" style="rounded=0;whiteSpace=wrap;html=1;fontSize=24;fontStyle=0" parent="1" vertex="1">
          <mxGeometry x="520" y="1790" width="120" height="60" as="geometry" />
        </mxCell>
        <mxCell id="YJyw7X2XZXAhDAbzFkZ1-115" style="edgeStyle=orthogonalEdgeStyle;rounded=0;orthogonalLoop=1;jettySize=auto;html=1;fontSize=24;fontStyle=0" parent="1" source="YJyw7X2XZXAhDAbzFkZ1-114" edge="1">
          <mxGeometry relative="1" as="geometry">
            <mxPoint x="860" y="1680" as="targetPoint" />
          </mxGeometry>
        </mxCell>
        <mxCell id="YJyw7X2XZXAhDAbzFkZ1-116" value="0" style="edgeLabel;html=1;align=center;verticalAlign=middle;resizable=0;points=[];fontSize=24;fontStyle=0" parent="YJyw7X2XZXAhDAbzFkZ1-115" vertex="1" connectable="0">
          <mxGeometry x="-0.21" y="3" relative="1" as="geometry">
            <mxPoint as="offset" />
          </mxGeometry>
        </mxCell>
        <mxCell id="YJyw7X2XZXAhDAbzFkZ1-119" style="edgeStyle=orthogonalEdgeStyle;rounded=0;orthogonalLoop=1;jettySize=auto;html=1;fontSize=24;fontStyle=0" parent="1" source="YJyw7X2XZXAhDAbzFkZ1-114" edge="1">
          <mxGeometry relative="1" as="geometry">
            <mxPoint x="740" y="1770" as="targetPoint" />
          </mxGeometry>
        </mxCell>
        <mxCell id="jt6Rj8C8MqJk3kny9WXJ-4" value="1" style="edgeLabel;html=1;align=center;verticalAlign=middle;resizable=0;points=[];fontSize=24;" vertex="1" connectable="0" parent="YJyw7X2XZXAhDAbzFkZ1-119">
          <mxGeometry x="-0.5029" y="10" relative="1" as="geometry">
            <mxPoint as="offset" />
          </mxGeometry>
        </mxCell>
        <mxCell id="YJyw7X2XZXAhDAbzFkZ1-114" value="x3" style="rhombus;whiteSpace=wrap;html=1;fontSize=24;fontStyle=0" parent="1" vertex="1">
          <mxGeometry x="700" y="1640" width="80" height="80" as="geometry" />
        </mxCell>
        <mxCell id="YJyw7X2XZXAhDAbzFkZ1-118" style="edgeStyle=orthogonalEdgeStyle;rounded=0;orthogonalLoop=1;jettySize=auto;html=1;fontSize=24;fontStyle=0" parent="1" source="YJyw7X2XZXAhDAbzFkZ1-117" edge="1">
          <mxGeometry relative="1" as="geometry">
            <mxPoint x="920" y="1290" as="targetPoint" />
          </mxGeometry>
        </mxCell>
        <mxCell id="YJyw7X2XZXAhDAbzFkZ1-117" value="y8" style="rounded=0;whiteSpace=wrap;html=1;fontSize=24;fontStyle=0" parent="1" vertex="1">
          <mxGeometry x="860" y="1650" width="120" height="60" as="geometry" />
        </mxCell>
        <mxCell id="YJyw7X2XZXAhDAbzFkZ1-121" style="edgeStyle=orthogonalEdgeStyle;rounded=0;orthogonalLoop=1;jettySize=auto;html=1;fontSize=24;fontStyle=0" parent="1" source="YJyw7X2XZXAhDAbzFkZ1-120" edge="1">
          <mxGeometry relative="1" as="geometry">
            <mxPoint x="580" y="1760" as="targetPoint" />
            <Array as="points">
              <mxPoint x="670" y="1800" />
              <mxPoint x="670" y="1760" />
            </Array>
          </mxGeometry>
        </mxCell>
        <mxCell id="YJyw7X2XZXAhDAbzFkZ1-120" value="y19" style="rounded=0;whiteSpace=wrap;html=1;fontSize=24;fontStyle=0" parent="1" vertex="1">
          <mxGeometry x="680" y="1770" width="120" height="60" as="geometry" />
        </mxCell>
        <mxCell id="YJyw7X2XZXAhDAbzFkZ1-123" value="7" style="ellipse;whiteSpace=wrap;html=1;aspect=fixed;fontSize=24;fontStyle=0" parent="1" vertex="1">
          <mxGeometry x="540" y="1900" width="80" height="80" as="geometry" />
        </mxCell>
        <mxCell id="YJyw7X2XZXAhDAbzFkZ1-129" style="edgeStyle=orthogonalEdgeStyle;rounded=0;orthogonalLoop=1;jettySize=auto;html=1;fontSize=24;fontStyle=0" parent="1" source="YJyw7X2XZXAhDAbzFkZ1-126" edge="1">
          <mxGeometry relative="1" as="geometry">
            <mxPoint x="150" y="1120" as="targetPoint" />
          </mxGeometry>
        </mxCell>
        <mxCell id="YJyw7X2XZXAhDAbzFkZ1-133" value="0" style="edgeLabel;html=1;align=center;verticalAlign=middle;resizable=0;points=[];fontSize=24;fontStyle=0" parent="YJyw7X2XZXAhDAbzFkZ1-129" vertex="1" connectable="0">
          <mxGeometry x="-0.1868" y="-2" relative="1" as="geometry">
            <mxPoint x="1" as="offset" />
          </mxGeometry>
        </mxCell>
        <mxCell id="YJyw7X2XZXAhDAbzFkZ1-134" style="edgeStyle=orthogonalEdgeStyle;rounded=0;orthogonalLoop=1;jettySize=auto;html=1;fontSize=24;fontStyle=0" parent="1" source="YJyw7X2XZXAhDAbzFkZ1-126" edge="1">
          <mxGeometry relative="1" as="geometry">
            <mxPoint x="250" y="1220" as="targetPoint" />
          </mxGeometry>
        </mxCell>
        <mxCell id="jt6Rj8C8MqJk3kny9WXJ-2" value="1" style="edgeLabel;html=1;align=center;verticalAlign=middle;resizable=0;points=[];fontSize=24;" vertex="1" connectable="0" parent="YJyw7X2XZXAhDAbzFkZ1-134">
          <mxGeometry x="-0.253" y="3" relative="1" as="geometry">
            <mxPoint as="offset" />
          </mxGeometry>
        </mxCell>
        <mxCell id="YJyw7X2XZXAhDAbzFkZ1-126" value="x13" style="rhombus;whiteSpace=wrap;html=1;fontSize=24;fontStyle=0" parent="1" vertex="1">
          <mxGeometry x="210" y="1080" width="80" height="80" as="geometry" />
        </mxCell>
        <mxCell id="YJyw7X2XZXAhDAbzFkZ1-131" style="edgeStyle=orthogonalEdgeStyle;rounded=0;orthogonalLoop=1;jettySize=auto;html=1;fontSize=24;fontStyle=0" parent="1" source="YJyw7X2XZXAhDAbzFkZ1-130" edge="1">
          <mxGeometry relative="1" as="geometry">
            <mxPoint x="-40" y="1120" as="targetPoint" />
          </mxGeometry>
        </mxCell>
        <mxCell id="YJyw7X2XZXAhDAbzFkZ1-130" value="y22" style="rounded=0;whiteSpace=wrap;html=1;fontSize=24;fontStyle=0" parent="1" vertex="1">
          <mxGeometry x="30" y="1090" width="120" height="60" as="geometry" />
        </mxCell>
        <mxCell id="YJyw7X2XZXAhDAbzFkZ1-132" value="8" style="ellipse;whiteSpace=wrap;html=1;aspect=fixed;fontSize=24;fontStyle=0" parent="1" vertex="1">
          <mxGeometry x="-120" y="1080" width="80" height="80" as="geometry" />
        </mxCell>
        <mxCell id="YJyw7X2XZXAhDAbzFkZ1-139" style="edgeStyle=orthogonalEdgeStyle;rounded=0;orthogonalLoop=1;jettySize=auto;html=1;entryX=1;entryY=0.5;entryDx=0;entryDy=0;fontSize=24;fontStyle=0" parent="1" source="YJyw7X2XZXAhDAbzFkZ1-135" target="YJyw7X2XZXAhDAbzFkZ1-138" edge="1">
          <mxGeometry relative="1" as="geometry" />
        </mxCell>
        <mxCell id="YJyw7X2XZXAhDAbzFkZ1-140" value="0" style="edgeLabel;html=1;align=center;verticalAlign=middle;resizable=0;points=[];fontSize=24;fontStyle=0" parent="YJyw7X2XZXAhDAbzFkZ1-139" vertex="1" connectable="0">
          <mxGeometry x="-0.1867" y="-4" relative="1" as="geometry">
            <mxPoint as="offset" />
          </mxGeometry>
        </mxCell>
        <mxCell id="YJyw7X2XZXAhDAbzFkZ1-142" style="edgeStyle=orthogonalEdgeStyle;rounded=0;orthogonalLoop=1;jettySize=auto;html=1;fontSize=24;fontStyle=0" parent="1" source="YJyw7X2XZXAhDAbzFkZ1-135" edge="1">
          <mxGeometry relative="1" as="geometry">
            <mxPoint x="250" y="1350" as="targetPoint" />
          </mxGeometry>
        </mxCell>
        <mxCell id="jt6Rj8C8MqJk3kny9WXJ-3" value="1" style="edgeLabel;html=1;align=center;verticalAlign=middle;resizable=0;points=[];fontSize=24;" vertex="1" connectable="0" parent="YJyw7X2XZXAhDAbzFkZ1-142">
          <mxGeometry x="-0.5594" y="6" relative="1" as="geometry">
            <mxPoint as="offset" />
          </mxGeometry>
        </mxCell>
        <mxCell id="YJyw7X2XZXAhDAbzFkZ1-135" value="x3" style="rhombus;whiteSpace=wrap;html=1;fontSize=24;fontStyle=0" parent="1" vertex="1">
          <mxGeometry x="210" y="1220" width="80" height="80" as="geometry" />
        </mxCell>
        <mxCell id="YJyw7X2XZXAhDAbzFkZ1-141" style="edgeStyle=orthogonalEdgeStyle;rounded=0;orthogonalLoop=1;jettySize=auto;html=1;fontSize=24;fontStyle=0" parent="1" source="YJyw7X2XZXAhDAbzFkZ1-138" edge="1">
          <mxGeometry relative="1" as="geometry">
            <mxPoint y="1120" as="targetPoint" />
          </mxGeometry>
        </mxCell>
        <mxCell id="YJyw7X2XZXAhDAbzFkZ1-138" value="y8" style="rounded=0;whiteSpace=wrap;html=1;fontSize=24;fontStyle=0" parent="1" vertex="1">
          <mxGeometry x="30" y="1230" width="120" height="60" as="geometry" />
        </mxCell>
        <mxCell id="YJyw7X2XZXAhDAbzFkZ1-145" style="edgeStyle=orthogonalEdgeStyle;rounded=0;orthogonalLoop=1;jettySize=auto;html=1;entryX=0.5;entryY=0;entryDx=0;entryDy=0;fontSize=24;fontStyle=0" parent="1" source="YJyw7X2XZXAhDAbzFkZ1-143" target="YJyw7X2XZXAhDAbzFkZ1-144" edge="1">
          <mxGeometry relative="1" as="geometry" />
        </mxCell>
        <mxCell id="YJyw7X2XZXAhDAbzFkZ1-143" value="y21" style="rounded=0;whiteSpace=wrap;html=1;fontSize=24;fontStyle=0" parent="1" vertex="1">
          <mxGeometry x="190" y="1350" width="120" height="60" as="geometry" />
        </mxCell>
        <mxCell id="YJyw7X2XZXAhDAbzFkZ1-144" value="9" style="ellipse;whiteSpace=wrap;html=1;aspect=fixed;fontSize=24;fontStyle=0" parent="1" vertex="1">
          <mxGeometry x="210" y="1450" width="80" height="80" as="geometry" />
        </mxCell>
        <mxCell id="YJyw7X2XZXAhDAbzFkZ1-147" style="edgeStyle=orthogonalEdgeStyle;rounded=0;orthogonalLoop=1;jettySize=auto;html=1;fontSize=24;fontStyle=0" parent="1" source="YJyw7X2XZXAhDAbzFkZ1-146" edge="1">
          <mxGeometry relative="1" as="geometry">
            <mxPoint x="250" y="330" as="targetPoint" />
            <Array as="points">
              <mxPoint x="313" y="310" />
              <mxPoint x="313" y="331" />
            </Array>
          </mxGeometry>
        </mxCell>
        <mxCell id="YJyw7X2XZXAhDAbzFkZ1-146" value="9" style="ellipse;whiteSpace=wrap;html=1;aspect=fixed;fontSize=24;fontStyle=0" parent="1" vertex="1">
          <mxGeometry x="490" y="250" width="80" height="80" as="geometry" />
        </mxCell>
        <mxCell id="YJyw7X2XZXAhDAbzFkZ1-158" style="edgeStyle=orthogonalEdgeStyle;rounded=0;orthogonalLoop=1;jettySize=auto;html=1;fontSize=24;fontStyle=0" parent="1" source="YJyw7X2XZXAhDAbzFkZ1-148" edge="1">
          <mxGeometry relative="1" as="geometry">
            <mxPoint x="430" y="310" as="targetPoint" />
          </mxGeometry>
        </mxCell>
        <mxCell id="YJyw7X2XZXAhDAbzFkZ1-148" value="3" style="ellipse;whiteSpace=wrap;html=1;aspect=fixed;fontSize=24;fontStyle=0" parent="1" vertex="1">
          <mxGeometry x="490" y="-20" width="80" height="80" as="geometry" />
        </mxCell>
        <mxCell id="YJyw7X2XZXAhDAbzFkZ1-157" style="edgeStyle=orthogonalEdgeStyle;rounded=0;orthogonalLoop=1;jettySize=auto;html=1;fontSize=24;fontStyle=0" parent="1" source="YJyw7X2XZXAhDAbzFkZ1-151" edge="1">
          <mxGeometry relative="1" as="geometry">
            <mxPoint x="450" y="310" as="targetPoint" />
          </mxGeometry>
        </mxCell>
        <mxCell id="YJyw7X2XZXAhDAbzFkZ1-151" value="5" style="ellipse;whiteSpace=wrap;html=1;aspect=fixed;fontSize=24;fontStyle=0" parent="1" vertex="1">
          <mxGeometry x="490" y="70" width="80" height="80" as="geometry" />
        </mxCell>
        <mxCell id="YJyw7X2XZXAhDAbzFkZ1-156" style="edgeStyle=orthogonalEdgeStyle;rounded=0;orthogonalLoop=1;jettySize=auto;html=1;fontSize=24;fontStyle=0" parent="1" source="YJyw7X2XZXAhDAbzFkZ1-155" edge="1">
          <mxGeometry relative="1" as="geometry">
            <mxPoint x="470" y="310" as="targetPoint" />
          </mxGeometry>
        </mxCell>
        <mxCell id="YJyw7X2XZXAhDAbzFkZ1-155" value="7" style="ellipse;whiteSpace=wrap;html=1;aspect=fixed;fontSize=24;fontStyle=0" parent="1" vertex="1">
          <mxGeometry x="490" y="160" width="80" height="80" as="geometry" />
        </mxCell>
        <mxCell id="YJyw7X2XZXAhDAbzFkZ1-159" value="К" style="ellipse;whiteSpace=wrap;html=1;fontSize=24;fontStyle=0" parent="1" vertex="1">
          <mxGeometry x="940" y="250" width="120" height="80" as="geometry" />
        </mxCell>
        <mxCell id="YJyw7X2XZXAhDAbzFkZ1-167" style="edgeStyle=orthogonalEdgeStyle;rounded=0;orthogonalLoop=1;jettySize=auto;html=1;fontSize=24;fontStyle=0" parent="1" source="YJyw7X2XZXAhDAbzFkZ1-160" edge="1">
          <mxGeometry relative="1" as="geometry">
            <mxPoint x="830" y="290" as="targetPoint" />
          </mxGeometry>
        </mxCell>
        <mxCell id="YJyw7X2XZXAhDAbzFkZ1-160" value="1" style="ellipse;whiteSpace=wrap;html=1;aspect=fixed;fontSize=24;fontStyle=0" parent="1" vertex="1">
          <mxGeometry x="690" y="-20" width="80" height="80" as="geometry" />
        </mxCell>
        <mxCell id="YJyw7X2XZXAhDAbzFkZ1-166" style="edgeStyle=orthogonalEdgeStyle;rounded=0;orthogonalLoop=1;jettySize=auto;html=1;fontSize=24;fontStyle=0" parent="1" source="YJyw7X2XZXAhDAbzFkZ1-161" edge="1">
          <mxGeometry relative="1" as="geometry">
            <mxPoint x="810" y="290" as="targetPoint" />
          </mxGeometry>
        </mxCell>
        <mxCell id="YJyw7X2XZXAhDAbzFkZ1-161" value="2" style="ellipse;whiteSpace=wrap;html=1;aspect=fixed;fontSize=24;fontStyle=0" parent="1" vertex="1">
          <mxGeometry x="690" y="70" width="80" height="80" as="geometry" />
        </mxCell>
        <mxCell id="YJyw7X2XZXAhDAbzFkZ1-165" style="edgeStyle=orthogonalEdgeStyle;rounded=0;orthogonalLoop=1;jettySize=auto;html=1;fontSize=24;fontStyle=0" parent="1" source="YJyw7X2XZXAhDAbzFkZ1-162" edge="1">
          <mxGeometry relative="1" as="geometry">
            <mxPoint x="790" y="290" as="targetPoint" />
          </mxGeometry>
        </mxCell>
        <mxCell id="YJyw7X2XZXAhDAbzFkZ1-162" value="4" style="ellipse;whiteSpace=wrap;html=1;aspect=fixed;fontSize=24;fontStyle=0" parent="1" vertex="1">
          <mxGeometry x="690" y="160" width="80" height="80" as="geometry" />
        </mxCell>
        <mxCell id="YJyw7X2XZXAhDAbzFkZ1-164" style="edgeStyle=orthogonalEdgeStyle;rounded=0;orthogonalLoop=1;jettySize=auto;html=1;entryX=0;entryY=0.5;entryDx=0;entryDy=0;fontSize=24;fontStyle=0" parent="1" source="YJyw7X2XZXAhDAbzFkZ1-163" target="YJyw7X2XZXAhDAbzFkZ1-159" edge="1">
          <mxGeometry relative="1" as="geometry" />
        </mxCell>
        <mxCell id="YJyw7X2XZXAhDAbzFkZ1-163" value="8" style="ellipse;whiteSpace=wrap;html=1;aspect=fixed;fontSize=24;fontStyle=0" parent="1" vertex="1">
          <mxGeometry x="690" y="250" width="80" height="80" as="geometry" />
        </mxCell>
        <mxCell id="YJyw7X2XZXAhDAbzFkZ1-168" value="S1" style="text;html=1;align=center;verticalAlign=middle;whiteSpace=wrap;rounded=0;fontSize=24;fontStyle=1;fontColor=#FF0000;" parent="1" vertex="1">
          <mxGeometry x="260" y="350" width="60" height="30" as="geometry" />
        </mxCell>
        <mxCell id="YJyw7X2XZXAhDAbzFkZ1-169" value="S0" style="text;html=1;align=center;verticalAlign=middle;whiteSpace=wrap;rounded=0;fontSize=24;fontStyle=1;fontColor=#FF0000;" parent="1" vertex="1">
          <mxGeometry x="260" y="185" width="60" height="30" as="geometry" />
        </mxCell>
        <mxCell id="YJyw7X2XZXAhDAbzFkZ1-170" value="S0" style="text;html=1;align=center;verticalAlign=middle;whiteSpace=wrap;rounded=0;fontSize=24;fontStyle=1;fontColor=#FF0000;" parent="1" vertex="1">
          <mxGeometry x="890" y="250" width="60" height="30" as="geometry" />
        </mxCell>
        <mxCell id="YJyw7X2XZXAhDAbzFkZ1-171" value="S2" style="text;html=1;align=center;verticalAlign=middle;whiteSpace=wrap;rounded=0;fontSize=24;fontStyle=1;fontColor=#FF0000;" parent="1" vertex="1">
          <mxGeometry x="414" y="450" width="76" height="30" as="geometry" />
        </mxCell>
        <mxCell id="YJyw7X2XZXAhDAbzFkZ1-172" value="S3" style="text;html=1;align=center;verticalAlign=middle;whiteSpace=wrap;rounded=0;fontSize=24;fontStyle=1;fontColor=#FF0000;" parent="1" vertex="1">
          <mxGeometry x="680" y="1080" width="60" height="30" as="geometry" />
        </mxCell>
        <mxCell id="YJyw7X2XZXAhDAbzFkZ1-174" value="S4" style="text;html=1;align=center;verticalAlign=middle;whiteSpace=wrap;rounded=0;fontSize=24;fontStyle=1;fontColor=#FF0000;" parent="1" vertex="1">
          <mxGeometry x="590" y="1400" width="60" height="30" as="geometry" />
        </mxCell>
        <mxCell id="YJyw7X2XZXAhDAbzFkZ1-175" value="S5" style="text;html=1;align=center;verticalAlign=middle;whiteSpace=wrap;rounded=0;fontSize=24;fontStyle=1;fontColor=#FF0000;" parent="1" vertex="1">
          <mxGeometry x="580" y="1630" width="60" height="30" as="geometry" />
        </mxCell>
        <mxCell id="YJyw7X2XZXAhDAbzFkZ1-176" value="S6" style="text;html=1;align=center;verticalAlign=middle;whiteSpace=wrap;rounded=0;fontSize=24;fontStyle=1;fontColor=#FF0000;" parent="1" vertex="1">
          <mxGeometry x="580" y="1760" width="60" height="30" as="geometry" />
        </mxCell>
      </root>
    </mxGraphModel>
  </diagram>
</mxfile>
